<svg xmlns="http://www.w3.org/2000/svg" viewBox="0 0 1200 900"><defs><linearGradient id="g" x1="0" y1="0" x2="1" y2="1"><stop stop-color="#0b1934"/><stop offset="1" stop-color="#8b5cf6"/></linearGradient><filter id="s"><feDropShadow dx="0" dy="24" stdDeviation="22" flood-opacity=".28"/></filter></defs><rect width="1200" height="900" rx="40" fill="#f3f4f6"/><circle cx="1040" cy="100" r="250" fill="#22c55e" opacity=".22"/><rect x="100" y="90" width="1000" height="720" rx="44" fill="url(#g)"/><g filter="url(#s)"><rect x="180" y="180" width="620" height="440" rx="28" fill="white"/><rect x="215" y="220" width="180" height="22" rx="11" fill="#8b5cf6"/><rect x="215" y="270" width="470" height="68" rx="15" fill="#0b1934" opacity=".92"/><rect x="215" y="365" width="260" height="16" rx="8" fill="#cbd5e1"/><rect x="215" y="395" width="350" height="16" rx="8" fill="#e2e8f0"/><rect x="215" y="460" width="130" height="48" rx="24" fill="#8b5cf6"/><rect x="560" y="370" width="180" height="180" rx="30" fill="#22c55e" opacity=".8"/></g><g filter="url(#s)"><rect x="730" y="310" width="280" height="410" rx="38" fill="#0f172a" stroke="white" stroke-opacity=".18" stroke-width="8"/><rect x="760" y="350" width="220" height="240" rx="26" fill="#8b5cf6"/><circle cx="870" cy="470" r="58" fill="white" opacity=".9"/><rect x="760" y="620" width="130" height="15" rx="8" fill="white" opacity=".8"/><rect x="760" y="650" width="180" height="12" rx="6" fill="white" opacity=".28"/></g><text x="180" y="730" fill="white" font-family="Arial" font-weight="800" font-size="42">DiGi Trend · Selected Work</text></svg>